<svg xmlns="http://www.w3.org/2000/svg" viewBox="0 108 300 80" width="300" height="80" fill="none"><g clip-path="url(#clip0_2_936)"><path fill="#000" fill-rule="evenodd" d="M24.719 119.879c-1.185.22-2.962.658-3.898.972-.935.314-2.494.91-3.43 1.348-.935.408-2.837 1.505-4.21 2.415-1.371.91-3.554 2.76-4.832 4.107-1.31 1.38-2.993 3.544-3.804 4.83-.81 1.285-1.871 3.417-2.401 4.703-.499 1.285-1.185 3.355-1.466 4.546-.405 1.6-.56 3.45-.56 6.742s.155 5.142.56 6.741c.281 1.192.967 3.261 1.466 4.547.53 1.285 1.59 3.418 2.4 4.703.812 1.286 2.495 3.45 3.805 4.83 1.278 1.347 3.461 3.197 4.833 4.107 1.372.94 3.555 2.132 4.833 2.665 1.278.564 3.399 1.317 4.677 1.662 1.902.502 3.274.627 7.172.627 3.897 0 5.27-.126 7.171-.627 1.279-.345 3.399-1.098 4.677-1.662 1.279-.533 3.461-1.725 4.833-2.665 1.372-.91 3.555-2.76 4.833-4.108 1.31-1.38 2.994-3.543 3.804-4.829.811-1.285 1.871-3.418 2.401-4.703.5-1.286 1.185-3.355 1.466-4.547.405-1.599.561-3.449.561-6.741 0-3.293-.156-5.143-.561-6.742-.28-1.191-.967-3.26-1.466-4.546-.53-1.286-1.59-3.418-2.4-4.704-.811-1.285-2.495-3.449-3.805-4.829-1.278-1.348-3.46-3.198-4.833-4.107-1.372-.94-3.554-2.132-4.833-2.665-1.278-.565-3.398-1.286-4.677-1.631-1.495-.376-3.741-.658-6.235-.753-2.463-.062-4.709.032-6.081.314Zm69.524 25.748h-4.795a4.683 4.683 0 0 0-.536-1.653 4.194 4.194 0 0 0-1.04-1.248 4.58 4.58 0 0 0-1.466-.788 5.598 5.598 0 0 0-1.784-.273c-1.16 0-2.171.288-3.032.864-.861.57-1.529 1.401-2.003 2.496-.475 1.087-.712 2.408-.712 3.962 0 1.598.237 2.94.712 4.028.481 1.087 1.153 1.908 2.014 2.463.86.554 1.857.831 2.988.831.635 0 1.222-.083 1.762-.251a4.636 4.636 0 0 0 1.456-.734 4.223 4.223 0 0 0 1.05-1.193c.285-.467.482-1 .591-1.598l4.795.022a8.677 8.677 0 0 1-.93 2.977 8.953 8.953 0 0 1-1.982 2.55c-.825.745-1.81 1.336-2.955 1.774-1.139.43-2.426.645-3.864.645-2 0-3.787-.452-5.363-1.357-1.569-.904-2.81-2.214-3.722-3.929-.904-1.715-1.357-3.79-1.357-6.228 0-2.444.46-4.524 1.38-6.239.919-1.715 2.167-3.02 3.743-3.918 1.576-.905 3.349-1.357 5.32-1.357 1.298 0 2.502.182 3.611.547a9.175 9.175 0 0 1 2.966 1.598 8.215 8.215 0 0 1 2.102 2.55c.547 1.007.898 2.16 1.051 3.459Zm7.973 14.57v-9.72c.008-.722.146-1.338.416-1.849a2.882 2.882 0 0 1 1.139-1.182c.489-.27 1.05-.405 1.685-.405.949 0 1.686.288 2.211.865.533.576.796 1.382.788 2.419v9.872h4.663v-10.704c.007-1.314-.234-2.441-.722-3.382-.482-.949-1.161-1.675-2.036-2.178-.869-.511-1.887-.767-3.054-.767-1.277 0-2.339.285-3.185.854-.847.562-1.459 1.339-1.839 2.331h-.197v-8.57h-4.531v22.416h4.662Zm55.745 0v-5.337l1.263-1.442 4.581 6.78h5.462l-6.553-9.53 6.236-7.282h-5.353l-5.385 6.381h-.251v-11.986h-4.663v22.416h4.663Zm69.86 0v-22.416h8.844c1.7 0 3.149.325 4.345.974 1.197.643 2.109 1.536 2.737 2.682.635 1.138.952 2.452.952 3.94 0 1.489-.321 2.802-.963 3.94-.642 1.139-1.573 2.026-2.791 2.66-1.212.635-2.678.953-4.4.953h-3.984v7.267h-4.74Zm7.958-11.066h-3.218v-7.475h3.196c.919 0 1.678.157 2.276.47.599.307 1.044.741 1.336 1.303.299.555.448 1.204.448 1.948 0 .737-.149 1.39-.448 1.96-.292.561-.737 1.003-1.336 1.324-.591.314-1.342.47-2.254.47Zm13.386 10.823c.839.372 1.795.558 2.867.558.832 0 1.565-.11 2.2-.328a5.004 5.004 0 0 0 1.631-.93 4.731 4.731 0 0 0 1.084-1.39h.131v2.33h4.422v-11.337c0-1-.193-1.857-.58-2.573a4.954 4.954 0 0 0-1.587-1.773 6.996 6.996 0 0 0-2.288-1.018 10.721 10.721 0 0 0-2.681-.328c-1.343 0-2.525.204-3.547.613-1.014.401-1.842.978-2.484 1.73-.642.744-1.073 1.627-1.292 2.648l4.313.35c.16-.554.489-1.014.985-1.379.496-.372 1.164-.558 2.003-.558.795 0 1.408.19 1.839.57.437.379.656.915.656 1.608v.066c0 .357-.135.627-.405.81-.27.182-.704.32-1.302.416-.599.087-1.387.182-2.364.284-.832.08-1.628.22-2.386.416a6.806 6.806 0 0 0-2.014.876 4.158 4.158 0 0 0-1.401 1.532c-.343.635-.515 1.42-.515 2.353 0 1.11.241 2.036.723 2.78a4.613 4.613 0 0 0 1.992 1.675v-.001Zm6.02-3.065c-.526.27-1.131.405-1.817.405-.715 0-1.307-.164-1.774-.492-.459-.336-.689-.821-.689-1.456 0-.438.113-.802.339-1.094.226-.3.544-.537.952-.712.46-.189.942-.318 1.434-.383l.571-.08c.091-.014.186-.027.283-.04.314-.051.628-.106.941-.164.314-.066.595-.136.843-.208a2.5 2.5 0 0 0 .602-.263v1.784c0 .591-.149 1.12-.449 1.587-.299.467-.711.84-1.236 1.116Zm17.506 9.96c-1.51 0-2.805-.207-3.885-.623-1.073-.409-1.927-.967-2.562-1.675-.634-.708-1.047-1.503-1.236-2.386l4.312-.58a2.8 2.8 0 0 0 .624.941c.284.292.66.526 1.127.7.475.183 1.051.274 1.73.274 1.014 0 1.849-.248 2.506-.744.664-.489.996-1.31.996-2.463v-3.075h-.197a4.433 4.433 0 0 1-.919 1.324c-.409.416-.934.755-1.576 1.018-.643.263-1.409.394-2.299.394-1.262 0-2.412-.292-3.448-.876-1.029-.59-1.849-1.492-2.462-2.703-.606-1.219-.909-2.758-.909-4.619 0-1.904.31-3.495.931-4.772.62-1.277 1.444-2.233 2.473-2.868a6.391 6.391 0 0 1 3.404-.952c.941 0 1.729.16 2.364.482.635.313 1.146.707 1.533 1.182.394.467.697.926.908 1.379h.175v-2.824h4.63v16.976c0 1.43-.35 2.627-1.051 3.59-.7.963-1.671 1.686-2.911 2.167-1.233.49-2.652.733-4.258.733Zm.099-10.397c.751 0 1.386-.186 1.904-.559.526-.379.927-.919 1.204-1.62.285-.707.427-1.554.427-2.539 0-.985-.139-1.839-.416-2.561-.277-.73-.679-1.295-1.204-1.696-.525-.402-1.164-.602-1.915-.602-.766 0-1.412.207-1.938.623-.525.409-.923.978-1.193 1.708s-.405 1.572-.405 2.528c0 .97.135 1.81.405 2.518.278.7.675 1.244 1.193 1.63.526.38 1.172.57 1.938.57Zm19.494 4.071c-1.73 0-3.218-.35-4.466-1.05a7.2 7.2 0 0 1-2.868-3c-.671-1.298-1.007-2.834-1.007-4.607 0-1.73.336-3.247 1.007-4.554.672-1.306 1.617-2.324 2.835-3.053 1.226-.73 2.663-1.095 4.313-1.095 1.109 0 2.141.179 3.097.536a6.89 6.89 0 0 1 2.518 1.587c.722.708 1.284 1.599 1.685 2.671.401 1.065.602 2.313.602 3.743v1.281h-11.449v.01c0 .833.154 1.552.46 2.157a3.362 3.362 0 0 0 1.324 1.401c.57.329 1.245.493 2.025.493.483.005.964-.069 1.423-.22.412-.135.79-.359 1.106-.656.306-.292.54-.65.7-1.073l4.313.285a5.893 5.893 0 0 1-1.347 2.714c-.671.767-1.539 1.365-2.605 1.795-1.058.424-2.28.635-3.666.635Zm-3.262-12.083a3.633 3.633 0 0 0-.466 1.652h7.055c0-.67-.146-1.266-.438-1.784a3.14 3.14 0 0 0-1.215-1.215c-.51-.299-1.105-.448-1.784-.448-.708 0-1.335.164-1.882.492a3.453 3.453 0 0 0-1.27 1.303Zm-71.459-1.554v-3.503H214.4v-4.027h-4.663v4.027h-2.299v3.503h2.299v8.756c-.007 1.102.223 2.014.69 2.736.467.723 1.12 1.255 1.959 1.598.846.343 1.831.493 2.955.45a7.86 7.86 0 0 0 1.543-.187c.423-.095.752-.179.985-.252l-.733-3.47c-.117.023-.285.055-.503.1a4.017 4.017 0 0 1-.657.054c-.314 0-.591-.047-.832-.142a1.083 1.083 0 0 1-.547-.493c-.132-.24-.197-.576-.197-1.007v-8.143h3.163Zm-17.335 6.15v-9.653h4.663v16.812h-4.477v-3.055h-.175a4.958 4.958 0 0 1-1.893 2.375c-.876.599-1.945.898-3.207.898-1.124 0-2.113-.256-2.966-.767-.854-.51-1.522-1.236-2.003-2.178-.475-.94-.715-2.068-.723-3.382v-10.703h4.663v9.872c.007.993.274 1.777.799 2.354.525.576 1.229.864 2.112.864a3.35 3.35 0 0 0 1.577-.383c.488-.262.882-.65 1.182-1.16.306-.51.456-1.143.448-1.894Zm-26.498 6.404c1.24.722 2.711 1.083 4.411 1.083 1.7 0 3.167-.36 4.4-1.083a7.403 7.403 0 0 0 2.868-3.043c.671-1.306 1.006-2.82 1.006-4.542 0-1.737-.335-3.255-1.006-4.554-.672-1.306-1.628-2.32-2.868-3.042-1.233-.73-2.7-1.095-4.4-1.095-1.7 0-3.171.365-4.411 1.095-1.233.722-2.186 1.736-2.857 3.042-.671 1.3-1.007 2.817-1.007 4.554 0 1.722.336 3.236 1.007 4.542a7.414 7.414 0 0 0 2.857 3.043Zm6.37-3.185c-.518.437-1.164.656-1.937.656-.781 0-1.438-.219-1.97-.656-.526-.446-.923-1.051-1.193-1.817-.263-.767-.394-1.638-.394-2.616 0-.978.131-1.85.394-2.616.27-.766.667-1.372 1.193-1.817.532-.445 1.189-.668 1.97-.668.773 0 1.419.223 1.937.668.518.445.909 1.05 1.171 1.817.27.766.405 1.638.405 2.616 0 .978-.135 1.85-.405 2.616-.262.766-.653 1.371-1.171 1.817Zm-41.74 3.174c1.241.73 2.722 1.094 4.444 1.094 1.496 0 2.791-.273 3.886-.82 1.094-.548 1.951-1.307 2.572-2.277.627-.978.977-2.109 1.05-3.393h-4.4c-.087.59-.273 1.098-.558 1.521a2.767 2.767 0 0 1-1.062.952 3.073 3.073 0 0 1-1.433.329c-.723 0-1.354-.197-1.894-.591-.54-.394-.959-.967-1.259-1.719-.291-.751-.437-1.663-.437-2.736 0-1.058.149-1.96.448-2.704.3-.744.715-1.31 1.248-1.696.54-.394 1.171-.591 1.894-.591.853 0 1.543.259 2.068.777.533.51.861 1.186.985 2.025h4.4c-.065-1.299-.419-2.43-1.061-3.393-.642-.963-1.514-1.711-2.616-2.244-1.102-.533-2.386-.799-3.853-.799-1.7 0-3.167.369-4.4 1.105-1.233.73-2.185 1.748-2.857 3.054-.664 1.3-.996 2.81-.996 4.532 0 1.7.329 3.203.985 4.51a7.39 7.39 0 0 0 2.846 3.064Zm-13.911 1.094c-1.73 0-3.218-.35-4.466-1.05a7.2 7.2 0 0 1-2.868-3c-.671-1.298-1.007-2.834-1.007-4.607 0-1.73.336-3.247 1.007-4.554.672-1.306 1.617-2.324 2.835-3.053 1.226-.73 2.664-1.095 4.313-1.095 1.109 0 2.141.179 3.097.536a6.89 6.89 0 0 1 2.518 1.587c.722.708 1.284 1.599 1.685 2.671.401 1.065.602 2.313.602 3.743v1.281h-11.449v.01c0 .833.154 1.552.46 2.157a3.362 3.362 0 0 0 1.324 1.401c.57.329 1.245.493 2.025.493.483.005.964-.069 1.423-.22.412-.135.79-.359 1.106-.656.306-.292.54-.65.7-1.073l4.313.285a5.893 5.893 0 0 1-1.347 2.714c-.671.767-1.539 1.365-2.605 1.795-1.058.424-2.28.635-3.666.635Zm-3.262-12.083a3.633 3.633 0 0 0-.466 1.652h7.055c0-.67-.146-1.266-.438-1.784a3.14 3.14 0 0 0-1.215-1.215c-.51-.299-1.105-.448-1.784-.448-.708 0-1.335.164-1.882.492a3.453 3.453 0 0 0-1.27 1.303Z" clip-rule="evenodd"/><path fill="#fff" d="M22.848 133.52c1.029-.47 2.65-1.003 3.585-1.16 1.116-.175 2.24-.29 3.368-.344.873 0 2.557.188 3.742.439 1.153.25 2.93.972 3.96 1.599 1.029.595 2.463 1.693 3.211 2.414.748.721 1.715 1.944 2.183 2.728.436.784.998 2.195 1.216 3.136.25 1.066.343 2.383.187 3.449-.156 1.317-.405 1.944-1.154 2.728-.53.564-1.247 1.035-1.559 1.097-.561.094-.623-.094-.655-1.63 0-1.254-.28-2.258-.935-3.606-.53-1.004-1.715-2.697-2.65-3.7-.936-1.035-2.277-2.195-2.963-2.603-.685-.407-2.026-.972-2.962-1.223-.935-.25-2.494-.439-3.43-.439-.935 0-2.182.189-2.744.377-.56.22-1.527.878-2.12 1.474-.623.595-1.403 1.661-1.777 2.351-.437.878-.686 2.038-.78 3.92-.093 1.787.031 3.386.406 4.86.28 1.191 1.029 3.167 1.652 4.39.624 1.191 1.871 2.947 2.713 3.888.873.91 2.4 2.257 3.43 2.947 1.029.721 2.681 1.537 3.68 1.85.966.314 2.15.565 2.65.565.467 0 1.559-.188 2.4-.44.874-.25 2.183-.909 2.963-1.41.842-.565 1.808-.972 2.432-.972.935 0 .998.062.998 1.003-.032.784-.312 1.317-1.185 2.1-.624.597-1.996 1.475-3.025 1.976-1.029.47-3.15 1.13-4.677 1.411-2.62.502-2.962.502-5.145.032-1.278-.283-2.837-.721-3.43-1.004-.592-.282-1.808-1.035-2.681-1.693-.873-.627-2.339-2.007-3.212-3.041-.904-1.035-2.12-2.885-2.713-4.077-.56-1.191-1.278-3.041-1.559-4.076-.249-1.035-.56-3.292-.654-5.017-.125-2.289-.032-3.7.343-5.268.28-1.16.841-2.822 1.278-3.668.437-.878 1.434-2.227 2.245-3.01.842-.785 2.339-1.85 3.367-2.352l.001-.001Z"/></g><defs><clipPath id="clip0_2_936"><path fill="#fff" d="M0 100h300v100H0z"/></clipPath></defs></svg>